#N canvas 1241 120 1229 1311 10;
#X obj 330 420 clip~ -1 1;
#X obj 279 449 *~;
#X obj 142 398 osc~;
#X obj 19 61 hsl 128 15 -1000 1000 0 1 empty empty SPEED -2 -8 0 10
-262144 -1 -1 6200 1;
#X obj 20 100 hsl 128 15 0 1 0 0 empty empty DEPTH -2 -8 0 10 -262144
-1 -1 12700 1;
#X floatatom 166 61 5 0 0 0 - - -;
#X floatatom 166 99 5 0 0 0 - - -;
#X obj 75 -80 loadbang;
#X msg 15 -40 \; pd dsp 1;
#X obj 169 447 *~;
#X obj 75 15 vradio 15 1 0 2 empty empty empty 0 -8 0 10 -262144 -1
-1 0;
#X obj 175 302 select 1;
#X msg 271 354 1;
#X msg 139 355 1;
#X msg 177 354 0;
#X msg 326 355 0;
#X obj 330 398 *~ 1e+007;
#X obj 201 513 *~ 1;
#X obj 174 17 bng 15 250 50 0 empty empty RESET 17 7 0 10 -262144 -1
-1;
#X obj 200 580 wsprobe~;
#X msg 338 102 0;
#X text 100 28 Sine;
#X text 96 12 Square;
#X obj 325 -53 inlet;
#X obj 324 -5 inlet;
#X obj 326 41 inlet;
#X obj 314 168 s speed;
#X obj 314 198 s depth;
#X obj 331 276 outlet;
#X obj 331 308 outlet;
#X obj 51 447 r speed;
#X obj 292 477 r depth;
#X obj 113 584 outlet~;
#X connect 0 0 1 0;
#X connect 1 0 17 0;
#X connect 2 0 9 0;
#X connect 2 0 16 0;
#X connect 3 0 5 0;
#X connect 4 0 6 0;
#X connect 5 0 26 0;
#X connect 5 0 28 0;
#X connect 6 0 27 0;
#X connect 6 0 29 0;
#X connect 7 0 8 0;
#X connect 7 0 10 0;
#X connect 9 0 17 0;
#X connect 10 0 11 0;
#X connect 11 0 13 0;
#X connect 11 0 14 0;
#X connect 11 1 12 0;
#X connect 11 1 15 0;
#X connect 12 0 1 1;
#X connect 13 0 9 1;
#X connect 14 0 1 1;
#X connect 15 0 9 1;
#X connect 16 0 0 0;
#X connect 17 0 19 0;
#X connect 17 0 32 0;
#X connect 18 0 20 0;
#X connect 20 0 5 0;
#X connect 20 0 6 0;
#X connect 23 0 3 0;
#X connect 24 0 4 0;
#X connect 25 0 18 0;
#X connect 30 0 2 0;
#X connect 31 0 17 1;
#X coords 0 -1 1 1 250 150 1 0 0;
