#N canvas 112 129 1063 971 10;
#X obj 173 33 loadbang;
#X obj 47 110 delay 500;
#X obj 173 178 readsf~;
#X obj 150 743 output~;
#X obj 256 754 wsprobe~;
#X msg 47 152 start;
#X msg 173 115 open speech.wav;
#X obj 173 64 bng 15 250 50 0 empty empty empty 17 7 0 10 -262144 -1
-1;
#X obj 176 660 -~;
#X msg 259 180 0;
#X obj 263 349 hsl 128 15 -1000 1000 0 0 empty empty empty -2 -8 0
10 -262144 -1 -1 0 1;
#X floatatom 260 378 5 0 0 0 - - -;
#X obj 260 454 sig~;
#X obj 261 506 phasor~;
#X obj 261 562 cos~;
#X obj 318 561 cos~;
#X obj 319 535 +~ -0.25;
#X obj 175 610 *~;
#X obj 223 611 *~;
#X obj 173 553 hilbert~;
#X text 302 331 Frequency Shift;
#X obj 260 422 +;
#X obj 566 218 LFO~;
#X connect 0 0 7 0;
#X connect 0 0 9 0;
#X connect 1 0 5 0;
#X connect 2 0 19 0;
#X connect 2 1 7 0;
#X connect 5 0 2 0;
#X connect 6 0 2 0;
#X connect 7 0 1 0;
#X connect 7 0 6 0;
#X connect 8 0 3 0;
#X connect 8 0 3 1;
#X connect 8 0 4 0;
#X connect 9 0 10 0;
#X connect 10 0 11 0;
#X connect 11 0 21 0;
#X connect 12 0 13 0;
#X connect 13 0 16 0;
#X connect 13 0 14 0;
#X connect 14 0 17 1;
#X connect 15 0 18 1;
#X connect 16 0 15 0;
#X connect 17 0 8 0;
#X connect 18 0 8 1;
#X connect 19 0 17 0;
#X connect 19 1 18 0;
#X connect 21 0 12 0;
