#N canvas 326 37 1639 1285 10;
#X obj 184 125 hsl 128 15 0 10000 0 0 empty empty centre-frequency
-2 -8 0 10 -262144 -1 -1 0 1;
#X obj 404 126 hsl 128 15 0 100 0 0 empty empty Q -2 -8 0 10 -262144
-1 -1 0 1;
#X floatatom 331 125 5 0 0 0 - - -;
#X floatatom 553 126 5 0 0 0 - - -;
#X obj 708 235 bp~;
#X obj 613 133 s c;
#X obj 650 133 s q;
#X text 132 124 BP;
#X obj 184 169 hsl 128 15 0 10000 0 0 empty empty empty -2 -8 0 10
-262144 -1 -1 0 1;
#X obj 404 172 hsl 128 15 0 10000 0 0 empty empty empty -2 -8 0 10
-262144 -1 -1 0 1;
#X floatatom 332 169 5 0 0 0 - - -;
#X floatatom 554 172 5 0 0 0 - - -;
#X text 118 168 Cut-off;
#X text 181 153 High;
#X text 399 156 Low;
#X obj 613 173 s h;
#X obj 650 173 s l;
#X obj 707 277 lop~;
#X obj 707 329 hip~;
#X obj 184 212 hsl 128 15 0 1000 0 0 empty empty empty -2 -8 0 10 -262144
-1 -1 0 1;
#X text 178 195 Delay;
#X obj 405 212 hsl 128 15 0 0.99 0 0 empty empty empty -2 -8 0 10 -262144
-1 -1 0 1;
#X text 399 196 Feedback;
#X floatatom 331 211 5 0 0 0 - - -;
#X floatatom 554 212 5 0 0 0 - - -;
#X obj 614 212 s d;
#X obj 651 212 s f;
#X obj 185 254 hsl 128 15 0 50 0 0 empty empty SPEED -2 -8 0 10 -262144
-1 -1 0 1;
#X obj 406 254 hsl 128 15 0 1 0 0 empty empty DEPTH -2 -8 0 10 -262144
-1 -1 0 1;
#X floatatom 332 253 5 0 0 0 - - -;
#X floatatom 552 253 5 0 0 0 - - -;
#X obj 531 364 vradio 15 1 0 2 empty empty empty 0 -8 0 10 -262144
-1 -1 0;
#X text 555 379 Sine;
#X text 552 362 Square;
#X text 128 254 LFO;
#X obj 616 253 s S;
#X obj 652 253 s D;
#X obj 707 133 inlet~;
#X obj 801 1054 outlet~;
#X obj 764 199 r c;
#X obj 791 199 r q;
#X obj 763 302 r h;
#X obj 766 253 r l;
#X obj 708 390 +~;
#X obj 827 320 sig~;
#X obj 826 362 vd~ delayline;
#X obj 827 277 r d;
#X obj 830 447 *~;
#X obj 831 478 s~ feedback;
#X obj 863 414 sig~;
#X obj 922 387 r f;
#X obj 513 573 delwrite~ delayline 1000;
#X obj 448 524 r~ feedback;
#X obj 362 667 clip~ -1 1;
#X obj 335 721 *~;
#X obj 193 624 osc~;
#X obj 199 728 *~;
#X msg 292 579 1;
#X msg 227 577 1;
#X msg 258 578 0;
#X msg 329 579 0;
#X obj 361 642 *~ 1e+007;
#X obj 246 759 *~ 1;
#X obj 260 528 select 1;
#X text 120 204 Delay;
#X text 111 216 /Feedback;
#X obj 946 34 bng 15 250 50 0 empty empty empty 17 7 0 10 -262144 -1
-1;
#X obj 106 598 r S;
#X obj 334 757 r D;
#X obj 185 290 hsl 128 15 -1000 1000 0 0 empty empty empty -2 -8 0
10 -262144 -1 -1 0 1;
#X obj 185 328 hsl 128 15 -1000 1000 0 0 empty empty empty -2 -8 0
10 -262144 -1 -1 0 1;
#X text 179 311 Vibrato Shift;
#X text 179 274 Tremolo Shift;
#X floatatom 332 290 5 0 0 0 - - -;
#X floatatom 329 328 5 0 0 0 - - -;
#X obj 616 291 s T;
#X obj 617 321 s V;
#X obj 1099 914 -~;
#X obj 1183 708 sig~;
#X obj 1184 760 phasor~;
#X obj 1184 816 cos~;
#X obj 1241 815 cos~;
#X obj 1242 789 +~ -0.25;
#X obj 1096 807 hilbert~;
#X obj 1190 655 r V;
#X obj 746 598 r T;
#X obj 658 644 LFO~;
#X obj 682 807 sig~;
#X obj 660 843 +~;
#X obj 660 882 *~ 0.5;
#X obj 953 -2 loadbang;
#X obj 1098 864 +~;
#X obj 1146 865 +~;
#X obj 627 914 *~;
#X obj 570 845 *~;
#X obj 121 372 bng 15 250 50 0 empty empty empty 17 7 0 10 -262144
-1 -1;
#X msg 34 236 0;
#X obj 188 372 hsl 128 15 0 100 0 0 empty empty empty -2 -8 0 10 -262144
-1 -1 0 1;
#X floatatom 337 371 5 0 0 0 - - -;
#X obj 150 533 s Vol;
#X text 188 354 Volume;
#X obj 800 996 *~;
#X obj 721 922 r Vol;
#X obj 631 951 *~;
#X text 139 371 reset;
#X msg 21 534 1;
#X msg 83 533 10000;
#X obj 653 291 s Td;
#X obj 405 293 hsl 128 15 0 1 0 0 empty empty DEPTH -2 -8 0 10 -262144
-1 -1 0 1;
#X floatatom 551 292 5 0 0 0 - - -;
#X obj 691 598 r Td;
#X text 531 341 LFO type;
#X connect 0 0 2 0;
#X connect 1 0 3 0;
#X connect 2 0 5 0;
#X connect 3 0 6 0;
#X connect 4 0 17 0;
#X connect 8 0 10 0;
#X connect 9 0 11 0;
#X connect 10 0 15 0;
#X connect 11 0 16 0;
#X connect 17 0 18 0;
#X connect 18 0 43 0;
#X connect 18 0 51 0;
#X connect 19 0 23 0;
#X connect 21 0 24 0;
#X connect 23 0 25 0;
#X connect 24 0 26 0;
#X connect 27 0 29 0;
#X connect 28 0 30 0;
#X connect 29 0 35 0;
#X connect 30 0 36 0;
#X connect 31 0 63 0;
#X connect 37 0 4 0;
#X connect 39 0 4 1;
#X connect 40 0 4 2;
#X connect 41 0 18 1;
#X connect 42 0 17 1;
#X connect 43 0 47 0;
#X connect 43 0 94 1;
#X connect 44 0 45 0;
#X connect 45 0 43 1;
#X connect 46 0 44 0;
#X connect 47 0 48 0;
#X connect 49 0 47 1;
#X connect 50 0 49 0;
#X connect 52 0 51 0;
#X connect 53 0 54 0;
#X connect 54 0 62 0;
#X connect 55 0 56 0;
#X connect 55 0 61 0;
#X connect 56 0 62 0;
#X connect 57 0 54 1;
#X connect 58 0 56 1;
#X connect 59 0 54 1;
#X connect 60 0 56 1;
#X connect 61 0 53 0;
#X connect 62 0 94 0;
#X connect 63 0 58 0;
#X connect 63 0 59 0;
#X connect 63 1 57 0;
#X connect 63 1 60 0;
#X connect 67 0 55 0;
#X connect 68 0 62 1;
#X connect 69 0 73 0;
#X connect 70 0 74 0;
#X connect 73 0 75 0;
#X connect 74 0 76 0;
#X connect 77 0 101 1;
#X connect 78 0 79 0;
#X connect 79 0 82 0;
#X connect 79 0 80 0;
#X connect 80 0 91 1;
#X connect 81 0 92 1;
#X connect 82 0 81 0;
#X connect 83 0 91 0;
#X connect 83 1 92 0;
#X connect 84 0 78 0;
#X connect 85 0 86 1;
#X connect 86 0 88 0;
#X connect 86 1 87 0;
#X connect 87 0 88 1;
#X connect 88 0 89 0;
#X connect 89 0 93 1;
#X connect 90 0 66 0;
#X connect 90 0 31 0;
#X connect 91 0 77 0;
#X connect 92 0 77 1;
#X connect 93 0 103 0;
#X connect 94 0 93 0;
#X connect 95 0 96 0;
#X connect 95 0 105 0;
#X connect 95 0 106 0;
#X connect 96 0 8 0;
#X connect 96 0 19 0;
#X connect 96 0 21 0;
#X connect 96 0 69 0;
#X connect 96 0 70 0;
#X connect 96 0 1 0;
#X connect 97 0 98 0;
#X connect 98 0 99 0;
#X connect 101 0 38 0;
#X connect 102 0 103 1;
#X connect 103 0 101 0;
#X connect 105 0 28 0;
#X connect 105 0 97 0;
#X connect 106 0 9 0;
#X connect 106 0 0 0;
#X connect 108 0 109 0;
#X connect 109 0 107 0;
#X connect 110 0 86 0;
#X coords 0 -1 1 1 500 300 1 100 100;
